<svg width="32" height="22" viewBox="0 0 32 22" fill="none" xmlns="http://www.w3.org/2000/svg">
<path d="M6.34902 5.18604C6.20175 5.18604 6.08236 5.30543 6.08236 5.4527V8.62044C6.08236 8.76771 6.20175 8.8871 6.34902 8.8871H10.0207C11.0427 8.8871 11.8712 8.05859 11.8712 7.03657C11.8712 6.01455 11.0427 5.18604 10.0207 5.18604H6.34902Z" fill="#202020"/>
<path d="M6.34902 11.2596C6.20175 11.2596 6.08236 11.379 6.08236 11.5263V15.3583C6.08236 15.5056 6.20175 15.625 6.34902 15.625H10.2579C11.4634 15.625 12.4406 14.6477 12.4406 13.4423C12.4406 12.2368 11.4634 11.2596 10.2579 11.2596H6.34902Z" fill="#202020"/>
<path d="M21.5152 11.4494C21.4503 11.4494 21.3977 11.3968 21.3977 11.3319C21.3977 10.0341 22.4498 8.982 23.7476 8.982H24.2673C25.5651 8.982 26.6172 10.0341 26.6172 11.3319C26.6172 11.3968 26.5646 11.4494 26.4997 11.4494H21.5152Z" fill="#202020"/>
<path fill-rule="evenodd" clip-rule="evenodd" d="M16.7599 9.99113C16.6746 9.8836 16.5858 9.7794 16.4936 9.67865C17.0701 8.76755 17.3631 7.70609 17.3357 6.62881C17.3597 5.70262 17.1743 4.78267 16.793 3.93765C16.4212 3.09752 15.8269 2.37495 15.0742 1.84794L15.0592 1.8375C14.3493 1.35006 13.5445 1.01828 12.6976 0.863703C11.8844 0.695462 11.0555 0.61526 10.2251 0.624495H2.66602C1.56145 0.624495 0.666016 1.51993 0.666016 2.62449V18.5668C0.666016 19.6714 1.56145 20.5668 2.66602 20.5668H10.4002C11.276 20.5675 12.1484 20.4565 12.9961 20.2367C13.8677 20.0112 14.6934 19.636 15.4365 19.1279L15.4462 19.1211C16.1878 18.6075 16.8026 17.9331 17.2451 17.1492C17.5296 17.6944 17.8796 18.2046 18.2884 18.6681C18.2999 18.6811 18.3115 18.694 18.3234 18.7067C19.0413 19.4792 19.9233 20.0811 20.9043 20.4688L20.9293 20.4785C21.9369 20.8611 23.0075 21.0511 24.0851 21.0388C25.6352 21.0776 27.1644 20.669 28.4881 19.8609C28.5269 19.8372 28.5649 19.8122 28.602 19.7859C29.9979 18.7973 31.0043 17.3521 31.4451 15.6998C31.5323 15.3727 31.5341 15.0337 31.4564 14.7131C31.6061 14.4566 31.7007 14.163 31.7231 13.8481C31.7985 12.7914 31.7079 11.7294 31.4547 10.7006L31.4528 10.6931C31.1947 9.66154 30.7431 8.68836 30.1221 7.82484L30.1013 7.79639C29.4439 6.91541 28.5952 6.19486 27.6194 5.68836C27.6064 5.6816 27.5933 5.67499 27.5801 5.66852C26.5149 5.14506 25.3411 4.8801 24.1544 4.89478C23.0697 4.88985 21.9945 5.09998 20.9916 5.51321L20.9787 5.51855C20.0354 5.9149 19.1803 6.4946 18.4632 7.22419L18.4475 7.24041C17.7278 7.98946 17.1702 8.87851 16.8097 9.85241L16.8083 9.85606C16.7918 9.90097 16.7756 9.94599 16.7599 9.99113ZM13.1028 9.89866C13.8696 10.0835 14.5566 10.5011 15.0722 11.0891C15.1607 11.1901 15.2441 11.2961 15.322 11.4067C15.3594 11.4635 15.3954 11.521 15.43 11.5792C15.8531 12.2916 16.0671 13.1104 16.0449 13.9413C16.0666 14.6666 15.9052 15.3857 15.5756 16.0323C15.2778 16.6104 14.8423 17.1066 14.3075 17.477C13.7554 17.8545 13.1418 18.1333 12.4941 18.3007C12.1878 18.3801 11.8775 18.4419 11.5648 18.4859C11.1798 18.54 10.7912 18.5671 10.4016 18.5668H2.66602V2.62449H10.2368C10.9354 2.61595 11.6328 2.68395 12.3165 2.82726C12.8943 2.92948 13.4435 3.15418 13.9271 3.48624C14.3832 3.80563 14.7429 4.24397 14.9669 4.75352C15.2336 5.34168 15.3596 5.98384 15.3347 6.62909C15.3603 7.26665 15.2082 7.89735 14.8975 8.45165C14.8633 8.51252 14.8273 8.57246 14.7894 8.63138C14.3724 9.19223 13.7482 9.63008 13.1028 9.89866ZM21.3351 13.9915C21.3307 13.8967 21.3307 13.8014 21.3351 13.7058H29.7282C29.7402 13.5367 29.747 13.3674 29.7485 13.1982C29.7504 12.9808 29.7436 12.7634 29.7282 12.5467C29.7081 12.2649 29.6734 11.9843 29.6241 11.7058C29.5928 11.5291 29.5556 11.3532 29.5127 11.1786C29.316 10.3926 28.9718 9.65088 28.4984 8.9925C28.0218 8.35386 27.4063 7.83111 26.698 7.4635C25.91 7.07625 25.0409 6.88134 24.1624 6.89486C23.3361 6.88883 22.517 7.04781 21.7535 7.36241C21.0542 7.65619 20.4207 8.08575 19.8897 8.62604C19.3603 9.17713 18.9503 9.83094 18.6853 10.5468C18.4009 11.3195 18.2591 12.1372 18.2669 12.9603C18.2538 13.7951 18.3912 14.6254 18.6726 15.4117C18.9116 16.1238 19.2909 16.7812 19.7883 17.3451C20.3029 17.8988 20.9354 18.3305 21.6393 18.6087C22.4243 18.9068 23.2591 19.0526 24.099 19.0384C25.2773 19.075 26.4407 18.7675 27.4461 18.1538C27.8377 17.8765 28.187 17.5498 28.4868 17.1843C28.8494 16.7422 29.1395 16.2432 29.3442 15.7058C29.4091 15.5356 29.4654 15.3616 29.5127 15.1843H26.7107C26.6392 15.3736 26.539 15.5493 26.4147 15.7058C26.2784 15.8776 26.113 16.0263 25.9247 16.1447C25.437 16.4667 24.8612 16.63 24.2765 16.6122C23.8894 16.6524 23.4982 16.6126 23.1274 16.4952C22.7565 16.3777 22.4139 16.1853 22.1211 15.9298C22.0573 15.8577 21.997 15.7829 21.9405 15.7058C21.5739 15.2063 21.3632 14.6098 21.3351 13.9915Z" fill="#202020"/>
<path d="M27.2614 2.52791C27.2585 2.23549 27.0206 2 26.7281 2H21.3616C21.0671 2 20.8283 2.23878 20.8283 2.53333V3.96171C20.8283 4.25626 21.0671 4.49504 21.3616 4.49504H26.7426C27.0393 4.49504 27.279 4.25294 27.276 3.95629L27.2614 2.52791Z" fill="#202020"/>
</svg>
