<svg width="1440" height="600" viewBox="0 0 1440 600" fill="none" xmlns="http://www.w3.org/2000/svg">
<g clip-path="url(#clip0_65_2366)">
<rect width="1440" height="600" fill="url(#paint0_linear_65_2366)"/>
<g opacity="0.04">
<path fill-rule="evenodd" clip-rule="evenodd" d="M836.746 748.658C839.944 751.639 844.154 753.297 848.526 753.297C852.898 753.297 857.108 751.639 860.306 748.658L959.261 649.18C960.861 647.664 962.135 645.837 963.006 643.811C963.877 641.786 964.326 639.605 964.326 637.4C964.326 635.195 963.877 633.014 963.006 630.988C962.135 628.963 960.861 627.136 959.261 625.62C950.749 616.748 945.997 604.929 945.997 592.635C945.997 580.34 950.749 568.522 959.261 559.65L961.879 557.556C965.081 554.561 967.025 550.46 967.317 546.085C967.609 541.711 966.226 537.388 963.449 533.995H962.402L652.973 223.519C651.411 221.904 649.54 220.619 647.471 219.742C645.402 218.865 643.178 218.413 640.931 218.413C638.684 218.413 636.46 218.865 634.391 219.742C632.323 220.619 630.451 221.904 628.889 223.519H628.365L626.271 226.137C617.399 234.648 605.581 239.401 593.286 239.401C580.992 239.401 569.173 234.648 560.302 226.137L558.207 223.519C555.212 220.316 551.112 218.372 546.737 218.081C542.362 217.789 538.04 219.172 534.647 221.948L533.6 222.995L434.122 322.473C431.14 325.672 429.483 329.881 429.483 334.254C429.483 338.626 431.14 342.835 434.122 346.034C438.459 350.362 441.9 355.503 444.248 361.163C446.596 366.823 447.805 372.891 447.805 379.019C447.805 385.146 446.596 391.214 444.248 396.874C441.9 402.534 438.459 407.675 434.122 412.003C431.14 415.202 429.483 419.412 429.483 423.784C429.483 428.156 431.14 432.366 434.122 435.564L746.692 748.135C749.89 751.116 754.1 752.773 758.472 752.773C762.845 752.773 767.054 751.116 770.253 748.135C779.083 739.342 791.038 734.406 803.499 734.406C815.961 734.406 827.915 739.342 836.746 748.135V748.658ZM593.286 121.946L1060.83 590.017L803.761 847.089L335.691 379.542L593.286 121.946ZM923.135 404.674L894.338 375.877C923.218 372.007 952.453 379.759 975.621 397.429C998.79 415.1 1014 441.244 1017.9 470.12C1018.95 479.865 1018.95 489.694 1017.9 499.439L1014.24 495.774L988.581 470.12L982.298 463.837C978.797 451.208 972.087 439.7 962.821 430.434C953.554 421.167 942.046 414.457 929.417 410.956L923.135 404.674ZM1013.71 121.946L1271.31 379.542L1084.92 565.933L1063.45 544.99L1172.88 436.088C1175.86 432.889 1177.52 428.68 1177.52 424.307C1177.52 419.935 1175.86 415.725 1172.88 412.527C1168.54 408.199 1165.1 403.057 1162.75 397.397C1160.4 391.737 1159.19 385.67 1159.19 379.542C1159.19 373.415 1160.4 367.347 1162.75 361.687C1165.1 356.027 1168.54 350.886 1172.88 346.557C1175.86 343.359 1177.52 339.149 1177.52 334.777C1177.52 330.405 1175.86 326.195 1172.88 322.997L1073.4 223.519C1071.88 221.919 1070.06 220.644 1068.03 219.773C1066 218.902 1063.82 218.453 1061.62 218.453C1059.41 218.453 1057.23 218.902 1055.21 219.773C1053.18 220.644 1051.35 221.919 1049.84 223.519H1048.79L1046.7 226.137C1037.83 234.648 1026.01 239.401 1013.71 239.401C1001.42 239.401 989.599 234.648 980.727 226.137L978.633 223.519C975.638 220.316 971.538 218.372 967.163 218.081C962.788 217.789 958.466 219.172 955.072 221.948C955.072 222.472 954.549 222.472 954.549 222.995L848.264 329.803L827.322 308.86L1013.71 121.946ZM791.719 882.692C793.236 884.292 795.062 885.566 797.088 886.437C799.113 887.308 801.295 887.757 803.499 887.757C805.704 887.757 807.885 887.308 809.911 886.437C811.936 885.566 813.763 884.292 815.28 882.692L1096.44 601.535L1098.01 599.965L1099.58 598.394L1306.91 391.061C1309.89 387.862 1311.55 383.653 1311.55 379.28C1311.55 374.908 1309.89 370.699 1306.91 367.5L1025.75 86.3438C1022.56 83.3627 1018.35 81.7051 1013.97 81.7051C1009.6 81.7051 1005.39 83.3627 1002.19 86.3438L803.761 285.3L604.805 86.3438C601.606 83.3627 597.397 81.7051 593.025 81.7051C588.652 81.7051 584.443 83.3627 581.244 86.3438L300.088 367.5C297.107 370.699 295.449 374.908 295.449 379.28C295.449 383.653 297.107 387.862 300.088 391.061L791.719 882.692ZM991.722 377.972C989.041 381.13 987.626 385.17 987.749 389.311C987.872 393.452 989.525 397.4 992.388 400.394C995.252 403.388 999.123 405.215 1003.25 405.521C1007.39 405.828 1011.48 404.594 1014.76 402.056H1015.28L1081.78 335.562C1084.37 332.344 1085.69 328.279 1085.47 324.149C1085.25 320.018 1083.51 316.115 1080.59 313.191C1077.66 310.266 1073.76 308.527 1069.63 308.307C1065.5 308.088 1061.43 309.404 1058.22 312.002L991.722 377.972ZM804.808 567.503L871.825 633.997C874.18 637.324 875.282 641.378 874.937 645.44C874.592 649.502 872.822 653.312 869.939 656.195C867.056 659.077 863.247 660.848 859.184 661.193C855.122 661.538 851.069 660.436 847.741 658.081L781.248 591.064C778.649 587.846 777.333 583.78 777.553 579.65C777.772 575.52 779.512 571.617 782.436 568.692C785.361 565.767 789.264 564.028 793.394 563.809C797.525 563.589 801.59 564.905 804.808 567.503ZM615.276 401.532C613.76 403.132 611.933 404.407 609.908 405.278C607.882 406.149 605.701 406.598 603.496 406.598C601.291 406.598 599.11 406.149 597.084 405.278C595.059 404.407 593.232 403.132 591.716 401.532L525.222 335.039C522.624 331.821 521.308 327.755 521.528 323.625C521.747 319.495 523.487 315.592 526.411 312.667C529.336 309.742 533.239 308.003 537.369 307.783C541.499 307.564 545.565 308.88 548.783 311.478L615.276 377.972C616.876 379.488 618.151 381.315 619.022 383.34C619.893 385.366 620.342 387.547 620.342 389.752C620.342 391.957 619.893 394.138 619.022 396.163C618.151 398.189 616.876 400.016 615.276 401.532ZM747.739 533.995C739.506 542.234 728.485 547.09 716.849 547.608H714.754C703.611 547.671 692.89 543.345 684.911 535.566C681.93 532.367 680.272 528.158 680.272 523.785C680.272 519.413 681.93 515.203 684.911 512.005L689.623 508.34C686.229 509.375 682.7 509.904 679.152 509.911C673.676 510.265 668.184 509.525 662.997 507.736C657.81 505.947 653.03 503.143 648.937 499.488C644.844 495.834 641.519 491.401 639.156 486.449C636.793 481.497 635.438 476.124 635.172 470.643V466.455C635.913 454.756 640.895 443.729 649.184 435.44C657.473 427.151 668.5 422.169 680.199 421.428C686.017 421.254 691.809 422.28 697.213 424.442C702.618 426.604 707.519 429.855 711.613 433.993C713.213 435.51 714.487 437.337 715.358 439.362C716.229 441.387 716.678 443.569 716.678 445.774C716.678 447.978 716.229 450.16 715.358 452.185C714.487 454.211 713.213 456.037 711.613 457.554L706.901 460.695L717.372 459.125C723.239 458.81 729.108 459.718 734.606 461.791C740.104 463.864 745.111 467.057 749.31 471.167C757.417 479.714 761.805 491.128 761.511 502.906C761.216 514.683 756.264 525.863 747.739 533.995ZM718.943 492.633C720.162 492.461 721.403 492.559 722.58 492.921C723.756 493.283 724.838 493.9 725.749 494.727C727.423 497.096 728.185 499.989 727.896 502.874C727.608 505.76 726.288 508.444 724.179 510.434C721.709 512.623 718.573 513.914 715.278 514.099C714.059 514.272 712.817 514.173 711.641 513.811C710.465 513.45 709.382 512.833 708.471 512.005C705.464 508.821 701.329 506.942 696.953 506.769H693.812C699.898 504.217 705.415 500.48 710.042 495.774C712.512 493.586 715.648 492.295 718.943 492.11V492.633ZM686.482 472.737C684.301 475.119 681.318 476.611 678.104 476.926C675.826 477.076 673.577 476.344 671.823 474.882C670.069 473.42 668.944 471.34 668.68 469.072V467.502C668.922 464.249 670.324 461.192 672.63 458.886C674.936 456.58 677.993 455.178 681.246 454.936H681.769C684.128 454.942 686.388 455.883 688.052 457.554C690.045 459.462 692.454 460.881 695.089 461.699C697.724 462.517 700.513 462.711 703.236 462.266C696.921 464.424 691.188 468.007 686.482 472.737ZM776.012 562.268C755.444 582.697 727.61 594.13 698.621 594.056C669.631 593.983 641.856 582.409 621.392 561.875C600.928 541.342 589.448 513.527 589.473 484.538C589.497 455.549 601.024 427.753 621.523 407.255C642.021 386.756 669.816 375.229 698.806 375.205C727.795 375.18 755.61 386.66 776.143 407.124C796.676 427.588 808.25 455.364 808.324 484.353C808.397 513.342 796.965 541.176 776.535 561.744L776.012 562.268ZM752.451 430.328C765.471 444.976 772.413 464.039 771.861 483.629C771.309 503.219 763.305 521.861 749.48 535.752C735.656 549.643 717.053 557.737 697.466 558.383C677.879 559.03 658.783 552.18 644.073 539.231C633.297 528.467 625.958 514.748 622.983 499.81C620.009 484.873 621.533 469.389 627.363 455.319C633.193 441.248 643.067 429.224 655.734 420.767C668.402 412.311 683.293 407.803 698.524 407.815C718.772 407.881 738.167 415.978 752.451 430.328Z" fill="white"/>
</g>
</g>
<defs>
<linearGradient id="paint0_linear_65_2366" x1="720" y1="0" x2="720" y2="723.715" gradientUnits="userSpaceOnUse">
<stop stop-color="#336714"/>
<stop offset="1" stop-color="#76BA4E"/>
</linearGradient>
<clipPath id="clip0_65_2366">
<rect width="1440" height="600" fill="white"/>
</clipPath>
</defs>
</svg>
