<svg width="375" height="748" viewBox="0 0 375 748" fill="none" xmlns="http://www.w3.org/2000/svg">
<g clip-path="url(#clip0_339_1526)">
<rect width="375" height="748" fill="url(#paint0_linear_339_1526)"/>
<g opacity="0.04">
<path fill-rule="evenodd" clip-rule="evenodd" d="M204.608 520.961C206.206 522.45 208.309 523.278 210.493 523.278C212.677 523.278 214.78 522.45 216.378 520.961L265.811 471.266C266.61 470.508 267.247 469.596 267.682 468.584C268.117 467.572 268.342 466.482 268.342 465.381C268.342 464.28 268.117 463.19 267.682 462.178C267.247 461.166 266.61 460.254 265.811 459.496C261.559 455.064 259.185 449.16 259.185 443.018C259.185 436.877 261.559 430.972 265.811 426.541L267.119 425.494C268.719 423.998 269.69 421.95 269.835 419.764C269.981 417.579 269.291 415.42 267.903 413.724H267.38L112.803 258.624C112.022 257.817 111.088 257.175 110.054 256.737C109.021 256.299 107.91 256.073 106.787 256.073C105.665 256.073 104.554 256.299 103.52 256.737C102.487 257.175 101.552 257.817 100.771 258.624H100.51L99.4637 259.932C95.0318 264.184 89.1277 266.558 82.9859 266.558C76.8441 266.558 70.94 264.184 66.5081 259.932L65.4619 258.624C63.9658 257.024 61.9174 256.053 59.7319 255.907C57.5464 255.761 55.3872 256.452 53.692 257.839L53.1689 258.362L3.47395 308.057C1.98473 309.655 1.15665 311.758 1.15665 313.942C1.15665 316.126 1.98473 318.229 3.47395 319.827C5.64082 321.989 7.35995 324.558 8.53291 327.385C9.70587 330.213 10.3096 333.244 10.3096 336.305C10.3096 339.366 9.70587 342.397 8.53291 345.225C7.35995 348.052 5.64082 350.62 3.47395 352.783C1.98473 354.38 1.15665 356.483 1.15665 358.668C1.15665 360.852 1.98473 362.955 3.47395 364.553L159.621 520.699C161.219 522.189 163.321 523.017 165.506 523.017C167.69 523.017 169.793 522.189 171.391 520.699C175.802 516.307 181.774 513.841 187.999 513.841C194.224 513.841 200.196 516.307 204.608 520.699V520.961ZM82.9859 207.883L316.552 441.711L188.13 570.133L-45.6979 336.566L82.9859 207.883ZM247.764 349.121L233.379 334.736C247.806 332.802 262.41 336.675 273.984 345.502C285.558 354.33 293.154 367.39 295.105 381.815C295.628 386.683 295.628 391.594 295.105 396.462L293.274 394.631L280.458 381.815L277.319 378.676C275.571 372.368 272.219 366.619 267.589 361.99C262.96 357.36 257.211 354.008 250.903 352.26L247.764 349.121ZM293.012 207.883L421.696 336.566L328.584 429.679L317.86 419.217L372.524 364.814C374.014 363.216 374.842 361.113 374.842 358.929C374.842 356.745 374.014 354.642 372.524 353.044C370.358 350.882 368.638 348.314 367.465 345.486C366.293 342.659 365.689 339.628 365.689 336.566C365.689 333.505 366.293 330.474 367.465 327.647C368.638 324.819 370.358 322.251 372.524 320.089C374.014 318.491 374.842 316.388 374.842 314.204C374.842 312.02 374.014 309.917 372.524 308.319L322.83 258.624C322.072 257.824 321.159 257.188 320.148 256.753C319.136 256.318 318.046 256.093 316.945 256.093C315.843 256.093 314.753 256.318 313.742 256.753C312.73 257.188 311.817 257.824 311.06 258.624H310.537L309.49 259.932C305.058 264.184 299.154 266.558 293.012 266.558C286.871 266.558 280.967 264.184 276.535 259.932L275.488 258.624C273.992 257.024 271.944 256.053 269.759 255.907C267.573 255.761 265.414 256.452 263.719 257.839C263.719 258.101 263.457 258.101 263.457 258.362L210.362 311.719L199.9 301.257L293.012 207.883ZM182.114 587.918C182.872 588.718 183.784 589.354 184.796 589.789C185.808 590.225 186.898 590.449 187.999 590.449C189.101 590.449 190.19 590.225 191.202 589.789C192.214 589.354 193.127 588.718 193.884 587.918L334.338 447.465L335.122 446.68L335.907 445.895L439.482 342.321C440.971 340.723 441.799 338.62 441.799 336.436C441.799 334.252 440.971 332.149 439.482 330.551L299.028 190.097C297.43 188.608 295.327 187.78 293.143 187.78C290.959 187.78 288.856 188.608 287.258 190.097L188.13 289.487L88.74 190.097C87.1423 188.608 85.0393 187.78 82.8551 187.78C80.6709 187.78 78.568 188.608 76.9702 190.097L-63.4835 330.551C-64.9727 332.149 -65.8008 334.252 -65.8008 336.436C-65.8008 338.62 -64.9727 340.723 -63.4835 342.321L182.114 587.918ZM282.027 335.782C280.688 337.36 279.981 339.378 280.042 341.446C280.104 343.515 280.929 345.488 282.36 346.983C283.791 348.479 285.725 349.391 287.788 349.545C289.852 349.698 291.9 349.081 293.536 347.813H293.797L327.014 314.596C328.312 312.988 328.97 310.958 328.86 308.894C328.75 306.831 327.881 304.881 326.42 303.42C324.959 301.959 323.01 301.09 320.946 300.98C318.883 300.871 316.852 301.528 315.244 302.826L282.027 335.782ZM188.653 430.464L222.132 463.681C223.308 465.343 223.859 467.368 223.687 469.398C223.514 471.427 222.63 473.33 221.19 474.77C219.749 476.21 217.846 477.095 215.817 477.267C213.788 477.44 211.763 476.889 210.1 475.712L176.883 442.234C175.585 440.626 174.928 438.595 175.037 436.532C175.147 434.469 176.016 432.519 177.477 431.058C178.938 429.597 180.888 428.728 182.951 428.618C185.015 428.508 187.045 429.166 188.653 430.464ZM93.9711 347.552C93.2135 348.351 92.3009 348.988 91.2891 349.423C90.2773 349.858 89.1875 350.082 88.0862 350.082C86.9848 350.082 85.895 349.858 84.8832 349.423C83.8714 348.988 82.9589 348.351 82.2012 347.552L48.9841 314.335C47.6861 312.727 47.0287 310.696 47.1383 308.633C47.2479 306.569 48.1169 304.62 49.5779 303.158C51.0389 301.697 52.9888 300.829 55.0521 300.719C57.1154 300.609 59.1463 301.267 60.7539 302.565L93.9711 335.782C94.7705 336.539 95.4071 337.452 95.8422 338.464C96.2773 339.476 96.5016 340.565 96.5016 341.667C96.5016 342.768 96.2773 343.858 95.8422 344.87C95.4071 345.882 94.7705 346.794 93.9711 347.552ZM160.144 413.724C156.031 417.84 150.525 420.266 144.712 420.525H143.666C138.099 420.556 132.744 418.395 128.758 414.509C127.268 412.911 126.44 410.808 126.44 408.624C126.44 406.44 127.268 404.337 128.758 402.739L131.112 400.908C129.416 401.425 127.653 401.69 125.88 401.693C123.145 401.87 120.402 401.5 117.81 400.607C115.219 399.713 112.831 398.312 110.787 396.486C108.742 394.661 107.081 392.446 105.9 389.973C104.72 387.499 104.043 384.815 103.91 382.077V379.984C104.28 374.14 106.769 368.631 110.91 364.49C115.051 360.35 120.559 357.861 126.404 357.491C129.31 357.404 132.203 357.917 134.903 358.997C137.603 360.076 140.052 361.701 142.097 363.768C142.896 364.526 143.533 365.438 143.968 366.45C144.403 367.462 144.627 368.551 144.627 369.653C144.627 370.754 144.403 371.844 143.968 372.856C143.533 373.868 142.896 374.78 142.097 375.538L139.743 377.107L144.974 376.322C147.905 376.165 150.837 376.619 153.583 377.654C156.33 378.69 158.831 380.285 160.929 382.338C164.979 386.608 167.171 392.31 167.023 398.193C166.876 404.077 164.402 409.662 160.144 413.724ZM145.758 393.062C146.367 392.976 146.988 393.025 147.575 393.206C148.163 393.386 148.704 393.695 149.159 394.108C149.995 395.291 150.375 396.736 150.231 398.178C150.087 399.619 149.428 400.96 148.374 401.955C147.14 403.048 145.574 403.693 143.928 403.785C143.319 403.872 142.698 403.822 142.111 403.642C141.523 403.461 140.983 403.153 140.527 402.739C139.025 401.149 136.959 400.21 134.773 400.124H133.204C136.244 398.849 139.001 396.982 141.312 394.631C142.546 393.538 144.113 392.893 145.758 392.8V393.062ZM129.542 383.123C128.453 384.313 126.963 385.058 125.357 385.215C124.219 385.29 123.096 384.924 122.22 384.194C121.343 383.464 120.781 382.425 120.649 381.292V380.507C120.77 378.883 121.47 377.355 122.622 376.203C123.775 375.051 125.302 374.351 126.927 374.23H127.188C128.366 374.233 129.495 374.703 130.327 375.538C131.322 376.491 132.526 377.2 133.842 377.609C135.158 378.017 136.552 378.114 137.912 377.892C134.757 378.97 131.893 380.76 129.542 383.123ZM174.268 427.848C163.993 438.054 150.088 443.765 135.606 443.728C121.125 443.692 107.249 437.91 97.0261 427.652C86.8032 417.395 81.0684 403.5 81.0806 389.018C81.0929 374.536 86.8512 360.651 97.0915 350.41C107.332 340.17 121.217 334.412 135.699 334.4C150.181 334.387 164.076 340.122 174.333 350.345C184.591 360.568 190.373 374.444 190.409 388.925C190.446 403.407 184.735 417.312 174.529 427.587L174.268 427.848ZM162.498 361.937C169.002 369.254 172.47 378.777 172.194 388.564C171.918 398.35 167.92 407.663 161.014 414.602C154.108 421.541 144.814 425.585 135.03 425.908C125.245 426.231 115.705 422.809 108.356 416.34C102.974 410.963 99.3071 404.109 97.8211 396.647C96.3352 389.185 97.0967 381.45 100.009 374.421C102.922 367.392 107.854 361.385 114.182 357.161C120.51 352.936 127.949 350.685 135.558 350.69C145.673 350.723 155.362 354.768 162.498 361.937Z" fill="white"/>
</g>
</g>
<defs>
<linearGradient id="paint0_linear_339_1526" x1="187.5" y1="0" x2="187.5" y2="902.231" gradientUnits="userSpaceOnUse">
<stop stop-color="#336714"/>
<stop offset="1" stop-color="#76BA4E"/>
</linearGradient>
<clipPath id="clip0_339_1526">
<rect width="375" height="748" fill="white"/>
</clipPath>
</defs>
</svg>
