<svg width="28" height="28" viewBox="0 0 28 28" fill="none" xmlns="http://www.w3.org/2000/svg">
<path fill-rule="evenodd" clip-rule="evenodd" d="M3.66667 0.666664C1.64162 0.666664 0 2.30829 0 4.33333C0 6.35838 1.64162 8 3.66667 8C5.69171 8 7.33333 6.35838 7.33333 4.33333C7.33333 2.30829 5.69171 0.666664 3.66667 0.666664ZM2 4.33333C2 3.41286 2.74619 2.66666 3.66667 2.66666C4.58714 2.66666 5.33333 3.41286 5.33333 4.33333C5.33333 5.25381 4.58714 6 3.66667 6C2.74619 6 2 5.25381 2 4.33333Z" fill="#202020"/>
<path fill-rule="evenodd" clip-rule="evenodd" d="M0 9.66666C0 9.11438 0.447715 8.66666 1 8.66666H6.33333C6.88562 8.66666 7.33333 9.11438 7.33333 9.66666V27C7.33333 27.5523 6.88562 28 6.33333 28H1C0.447715 28 0 27.5523 0 27V9.66666ZM2 10.6667V26H5.33333V10.6667H2Z" fill="#202020"/>
<path fill-rule="evenodd" clip-rule="evenodd" d="M9.33333 9.66666C9.33333 9.11438 9.78105 8.66666 10.3333 8.66666H15.6667C16.219 8.66666 16.6667 9.11438 16.6667 9.66666V10.2454L17.247 9.99664C18.2448 9.56901 19.3118 9.30086 20.391 9.20275C24.0909 8.86639 27.3333 11.7738 27.3333 15.507V27C27.3333 27.5523 26.8856 28 26.3333 28H21C20.4477 28 20 27.5523 20 27V17.6667C20 17.2246 19.8244 16.8007 19.5118 16.4882C19.1993 16.1756 18.7754 16 18.3333 16C17.8913 16 17.4674 16.1756 17.1548 16.4882C16.8423 16.8007 16.6667 17.2246 16.6667 17.6667V27C16.6667 27.5523 16.219 28 15.6667 28H10.3333C9.78105 28 9.33333 27.5523 9.33333 27V9.66666ZM11.3333 10.6667V26H14.6667V17.6667C14.6667 16.6942 15.053 15.7616 15.7406 15.0739C16.4282 14.3863 17.3609 14 18.3333 14C19.3058 14 20.2384 14.3863 20.9261 15.0739C21.6137 15.7616 22 16.6942 22 17.6667V26H25.3333V15.507C25.3333 12.9678 23.1187 10.963 20.5721 11.1945C19.7 11.2738 18.8379 11.4908 18.0349 11.8349L16.0606 12.681C15.7516 12.8135 15.3968 12.7818 15.1162 12.5967C14.8356 12.4117 14.6667 12.098 14.6667 11.7619V10.6667H11.3333Z" fill="#202020"/>
</svg>
