<svg width="32" height="32" viewBox="0 0 32 32" fill="none" xmlns="http://www.w3.org/2000/svg">
<path d="M21.3329 9.33333C21.3329 8.59695 21.9299 7.99999 22.6663 7.99999C23.4026 7.99999 23.9996 8.59695 23.9996 9.33333C23.9996 10.0697 23.4026 10.6667 22.6663 10.6667C21.9299 10.6667 21.3329 10.0697 21.3329 9.33333Z" fill="#202020"/>
<path fill-rule="evenodd" clip-rule="evenodd" d="M15.9996 9.66666C12.5018 9.66666 9.66626 12.5022 9.66626 16C9.66626 19.4978 12.5018 22.3333 15.9996 22.3333C19.4974 22.3333 22.3329 19.4978 22.3329 16C22.3329 12.5022 19.4974 9.66666 15.9996 9.66666ZM11.6663 16C11.6663 13.6068 13.6064 11.6667 15.9996 11.6667C18.3928 11.6667 20.3329 13.6068 20.3329 16C20.3329 18.3932 18.3928 20.3333 15.9996 20.3333C13.6064 20.3333 11.6663 18.3932 11.6663 16Z" fill="#202020"/>
<path fill-rule="evenodd" clip-rule="evenodd" d="M23.0106 3.77735C18.3885 3.26076 13.6107 3.26076 8.98862 3.77735C6.30588 4.07718 4.1401 6.19053 3.82469 8.88724C3.27198 13.613 3.27198 18.387 3.82469 23.1127C4.1401 25.8095 6.30588 27.9228 8.98862 28.2226C13.6107 28.7392 18.3885 28.7392 23.0106 28.2226C25.6933 27.9228 27.8591 25.8095 28.1745 23.1127C28.7272 18.387 28.7272 13.613 28.1745 8.88724C27.8591 6.19053 25.6933 4.07718 23.0106 3.77735ZM9.21076 5.76497C13.6852 5.26489 18.314 5.26489 22.7885 5.76497C24.5619 5.96319 25.9826 7.36267 26.1881 9.11957C26.7227 13.6909 26.7227 18.309 26.1881 22.8804C25.9826 24.6373 24.5619 26.0368 22.7885 26.235C18.314 26.7351 13.6852 26.7351 9.21077 26.235C7.43729 26.0368 6.01664 24.6373 5.81115 22.8804C5.27649 18.309 5.27649 13.6909 5.81115 9.11957C6.01664 7.36267 7.43729 5.96319 9.21076 5.76497Z" fill="#202020"/>
</svg>
