<svg width="68" height="40" viewBox="0 0 68 40" fill="none" xmlns="http://www.w3.org/2000/svg">
<path d="M0 39.9915V1.21338H14.49C18.3597 1.21338 21.8722 2.02797 25.0274 3.65716C28.1826 5.28635 30.689 7.5774 32.5467 10.5303C34.3987 13.4832 35.3247 16.8208 35.3247 20.543C35.3247 23.3432 34.7874 25.9595 33.7128 28.392C32.6382 30.8245 31.1777 32.8808 29.3315 34.5609C27.4909 36.2466 25.3046 37.5732 22.7724 38.5405C20.1943 39.5152 17.4556 40.0072 14.6958 39.9915H0ZM4.95574 35.2142H9.88577V5.98215H4.96432L4.95574 35.2142ZM14.893 5.98215H14.8415V35.2227H14.893C16.9013 35.2272 18.8929 34.8617 20.7661 34.1451C22.6352 33.4238 24.2729 32.4395 25.6704 31.1752C27.068 29.9109 28.174 28.3581 28.9971 26.5167C29.8202 24.6754 30.2318 22.6813 30.2318 20.543C30.2463 18.5084 29.8286 16.4934 29.0057 14.6287C28.1826 12.7959 27.0765 11.2516 25.6876 9.99573C24.2986 8.7399 22.6695 7.76408 20.8004 7.05131C18.9154 6.33492 16.9121 5.97235 14.893 5.98215Z" fill="#202020"/>
<path d="M62.5205 40L48.8451 11.2092L35.1267 40H29.7852L48.8451 0L67.9993 40H62.5205ZM51.3058 40H46.35V35.053H51.3058V40Z" fill="#202020"/>
</svg>
