<svg width="1440" height="460" viewBox="0 0 1440 460" fill="none" xmlns="http://www.w3.org/2000/svg">
<g opacity="0.02">
<path d="M670.104 458.92V13.9238H834.081C877.873 13.9238 917.622 23.2717 953.329 41.9673C989.035 60.663 1017.4 86.9538 1038.42 120.84C1059.38 154.726 1069.86 193.026 1069.86 235.74C1069.86 267.873 1063.78 297.897 1051.62 325.811C1039.46 353.724 1022.93 377.321 1002.04 396.601C981.208 415.946 956.466 431.169 927.81 442.269C898.634 453.454 867.641 459.1 836.41 458.92H670.104ZM726.186 404.099H781.977V68.6476H726.283L726.186 404.099ZM838.641 68.6476H838.059V404.196H838.641C861.369 404.247 883.907 400.054 905.106 391.83C926.258 383.553 944.79 372.258 960.606 357.749C976.421 343.24 988.938 325.421 998.253 304.291C1007.57 283.161 1012.22 260.278 1012.22 235.74C1012.39 212.391 1007.66 189.268 998.35 167.871C989.035 146.838 976.518 129.116 960.8 114.705C945.081 100.294 926.646 89.096 905.494 80.9167C884.162 72.6959 861.491 68.5352 838.641 68.6476Z" fill="white"/>
<path d="M1377.63 459.018L1222.87 128.63L1067.63 459.018H1007.18L1222.87 0L1439.63 459.018H1377.63ZM1250.72 459.018H1194.64V402.249H1250.72V459.018Z" fill="white"/>
</g>
<g opacity="0.02">
<path d="M0 458.92V13.9238H163.977C207.77 13.9238 247.519 23.2717 283.225 41.9673C318.931 60.663 347.296 86.9538 368.319 120.84C389.277 154.726 399.756 193.026 399.756 235.74C399.756 267.873 393.675 297.897 381.515 325.811C369.354 353.724 352.827 377.321 331.933 396.601C311.104 415.946 286.362 431.169 257.707 442.269C228.531 453.454 197.538 459.1 166.306 458.92H0ZM56.0822 404.099H111.873V68.6476H56.1793L56.0822 404.099ZM168.538 68.6476H167.956V404.196H168.538C191.265 404.247 213.804 400.054 235.002 391.83C256.154 383.553 274.687 372.258 290.502 357.749C306.318 343.24 318.834 325.421 328.149 304.291C337.464 283.161 342.121 260.278 342.121 235.74C342.286 212.391 337.559 189.268 328.246 167.871C318.931 146.838 306.415 129.116 290.696 114.705C274.978 100.294 256.542 89.096 235.39 80.9167C214.059 72.6959 191.388 68.5352 168.538 68.6476Z" fill="white"/>
<path d="M707.53 459.018L552.77 128.63L397.525 459.018H337.076L552.77 0L769.53 459.018H707.53ZM580.617 459.018H524.534V402.249H580.617V459.018Z" fill="white"/>
</g>
<g opacity="0.07">
<path d="M333.689 458.92V13.9238H497.667C541.459 13.9238 581.208 23.2717 616.914 41.9673C652.621 60.663 680.985 86.9538 702.008 120.84C722.966 154.726 733.445 193.026 733.445 235.74C733.445 267.873 727.365 297.897 715.204 325.811C703.043 353.724 686.516 377.321 665.623 396.601C644.794 415.946 620.052 431.169 591.396 442.269C562.22 453.454 531.227 459.1 499.996 458.92H333.689ZM389.772 404.099H445.563V68.6476H389.869L389.772 404.099ZM502.227 68.6476H501.645V404.196H502.227C524.955 404.247 547.493 400.054 568.692 391.83C589.844 383.553 608.376 372.258 624.192 357.749C640.007 343.24 652.524 325.421 661.839 304.291C671.153 283.161 675.811 260.278 675.811 235.74C675.976 212.391 671.248 189.268 661.936 167.871C652.621 146.838 640.104 129.116 624.386 114.705C608.667 100.294 590.232 89.096 569.08 80.9167C547.748 72.6959 525.077 68.5352 502.227 68.6476Z" fill="white"/>
<path d="M1041.22 459.018L886.459 128.63L731.214 459.018H670.766L886.459 0L1103.22 459.018H1041.22ZM914.306 459.018H858.224V402.249H914.306V459.018Z" fill="white"/>
</g>
</svg>
