<svg width="99" height="50" viewBox="0 0 99 50" fill="none" xmlns="http://www.w3.org/2000/svg">
<path d="M26.5698 17.6747C27.1746 27.283 27.9409 36.8833 28.8687 46.4757C28.9433 47.2374 29.49 47.9038 30.3599 47.9038C31.2297 47.9038 31.9256 47.2493 31.851 46.4757C30.9232 36.8833 30.1569 27.283 29.5521 17.6747C29.5149 16.9011 28.906 16.2466 28.061 16.2466C27.216 16.2466 26.5325 16.9011 26.5698 17.6747Z" fill="white"/>
<path d="M9.91852 24.6488C8.53919 24.0299 1.44373 21.3759 3.20828 19.5908C5.69355 17.2819 8.67588 15.4848 11.5712 13.6878C26.2592 4.98797 53.6221 1.57232 63.8738 8.24891C76.8594 16.6988 43.7183 38.0496 35.5914 41.251C29.0427 44.2858 21.8478 47.6538 14.4044 46.9517C11.5215 46.6422 8.57647 44.7499 9.37176 41.7508C15.8708 23.5063 41.6928 20.412 58.3441 14.7946C59.1145 14.5566 59.6116 13.8068 59.3879 13.0451C59.1642 12.2834 58.3317 11.8074 57.5612 12.0454C50.18 14.3423 42.6496 16.1394 35.3429 18.603C24.7556 22.3399 13.1494 27.4813 7.75633 37.5378C5.86752 40.894 5.46988 45.6306 9.16051 48.0109C21.1023 54.7113 42.0904 41.8223 51.435 34.3959C57.089 29.6116 62.4697 24.1846 66.1603 17.8413C70.6338 9.65325 67.9124 4.51192 56.9896 2.08407C39.7667 -1.74812 19.1389 4.91656 3.58107 15.5444C-4.29725 20.9356 2.42542 24.8749 8.41493 27.1123C10.167 27.9692 11.5837 25.6009 9.91852 24.6488Z" fill="white"/>
<path d="M80.8123 19.2934C79.2646 17.8239 78.2386 15.9253 77.8797 13.8665C78.3643 13.2476 78.4016 12.2717 77.5193 11.7362C75.1459 10.2961 72.2629 11.0697 70.2002 12.6407C68.1374 14.2116 66.7829 16.1991 65.7888 18.3294C65.3042 19.3529 64.9065 20.4479 65.0308 21.5904C65.1551 22.7329 65.9379 23.9825 67.2551 24.3872C69.7404 25.1726 72.1387 23.0542 73.5801 21.3761C74.5315 20.2604 75.3641 19.0563 76.0654 17.782C76.727 19.0917 77.618 20.2832 78.6998 21.3047C80.0667 22.602 82.1792 20.5788 80.8123 19.2934ZM73.0707 20.3883C72.2008 21.6856 69.0942 23.9587 68.0753 21.6261C67.9883 21.3404 67.3918 19.6981 69.0942 17.056C70.0883 15.5088 72.6979 13.0096 74.8104 13.8308C77.0471 15.6279 73.9654 19.0554 73.0707 20.3883Z" fill="white"/>
<path d="M92.8772 16.2702C91.7588 13.402 91.7588 7.08243 88.1676 6.35645C85.1356 5.70188 83.0479 7.92741 81.942 10.4267C81.1218 9.64119 79.6058 9.89111 79.3573 11.3431C78.7733 12.2595 79.0218 13.5567 80.2147 13.7947C80.5005 14.5564 81.4822 18.1506 82.0538 19.1027C82.874 20.4951 85.2598 19.5668 84.7752 18.0077C84.5018 17.1628 84.0918 16.1393 83.8432 15.1277C83.5947 14.116 82.613 9.26035 85.7445 7.65368C87.3599 6.8206 87.7824 8.96282 88.0309 9.65309C88.7765 12.0809 89.3232 14.5683 90.0067 17.0199C90.4789 18.8051 93.3494 18.0554 92.8772 16.2702Z" fill="white"/>
<path d="M96.8411 16.3539C98.7671 16.3539 98.7671 13.4976 96.8411 13.4976C94.915 13.4976 94.915 16.3539 96.8411 16.3539Z" fill="white"/>
</svg>
