<svg width="123" height="64" viewBox="0 0 123 64" fill="none" xmlns="http://www.w3.org/2000/svg">
<path d="M33.2518 21.8382C34.0086 34.4151 34.9676 46.9816 36.1288 59.5377C36.2221 60.5347 36.9063 61.4071 37.9949 61.4071C39.0835 61.4071 39.9543 60.5503 39.861 59.5377C38.6999 46.9816 37.7409 34.4151 36.9841 21.8382C36.9374 20.8256 36.1754 19.9688 35.1179 19.9688C34.0605 19.9688 33.2052 20.8256 33.2518 21.8382Z" fill="#202020"/>
<path d="M12.4126 30.9671C10.6864 30.157 1.80677 26.683 4.01502 24.3463C7.12523 21.3241 10.8575 18.9717 14.4809 16.6194C32.8622 5.23164 67.1056 0.760656 79.9352 9.5001C96.1861 20.5607 54.7114 48.5083 44.5411 52.6988C36.3457 56.6713 27.3416 61.08 18.0265 60.1609C14.4187 59.7558 10.7331 57.2789 11.7283 53.3531C19.8615 29.4715 52.1766 25.4212 73.015 18.0682C73.9792 17.7566 74.6012 16.7752 74.3213 15.7782C74.0414 14.7812 72.9995 14.158 72.0353 14.4696C62.798 17.4762 53.3741 19.8285 44.23 23.0533C30.9805 27.9449 16.4559 34.6747 9.7067 47.8384C7.34294 52.2315 6.84531 58.4317 11.464 61.5473C26.4085 70.3179 52.6743 53.4466 64.3687 43.7257C71.4444 37.4632 78.178 30.3595 82.7966 22.0562C88.395 11.3383 84.9893 4.60851 71.32 1.43052C49.7662 -3.5857 23.9515 5.13817 4.48155 19.0496C-5.37782 26.1066 3.0353 31.263 10.5309 34.1918C12.7236 35.3134 14.4964 32.2133 12.4126 30.9671Z" fill="#202020"/>
<path d="M101.132 23.957C99.1952 22.0334 97.9113 19.5482 97.4621 16.8533C98.0686 16.0432 98.1152 14.7658 97.0111 14.0647C94.0408 12.1798 90.433 13.1924 87.8515 15.2487C85.27 17.305 83.575 19.9066 82.3309 22.6951C81.7244 24.0349 81.2268 25.4681 81.3823 26.9636C81.5378 28.4591 82.5175 30.0949 84.1659 30.6245C87.2761 31.6527 90.2775 28.8797 92.0814 26.6832C93.272 25.2227 94.3139 23.6466 95.1916 21.9785C96.0195 23.693 97.1346 25.2526 98.4884 26.5897C100.199 28.2878 102.843 25.6395 101.132 23.957ZM91.4438 25.3902C90.3552 27.0882 86.4675 30.0637 85.1923 27.0103C85.0834 26.6365 84.337 24.4867 86.4675 21.0283C87.7116 19.0031 90.9773 15.7316 93.621 16.8065C96.4201 19.1589 92.5635 23.6454 91.4438 25.3902Z" fill="#202020"/>
<path d="M116.232 20.0001C114.832 16.2457 114.832 7.97362 110.338 7.02334C106.544 6.16653 103.931 9.07968 102.547 12.3511C101.521 11.323 99.6233 11.6501 99.3123 13.5507C98.5814 14.7502 98.8924 16.4482 100.385 16.7598C100.743 17.7568 101.972 22.4615 102.687 23.7077C103.713 25.5304 106.699 24.3153 106.093 22.2745C105.75 21.1685 105.237 19.8287 104.926 18.5046C104.615 17.1804 103.387 10.8245 107.306 8.72138C109.327 7.6309 109.856 10.435 110.167 11.3385C111.1 14.5165 111.784 17.7724 112.64 20.9815C113.23 23.3183 116.823 22.3368 116.232 20.0001Z" fill="#202020"/>
<path d="M121.193 20.109C123.603 20.109 123.603 16.3702 121.193 16.3702C118.782 16.3702 118.782 20.109 121.193 20.109Z" fill="#202020"/>
</svg>
