<svg width="32" height="32" viewBox="0 0 32 32" fill="none" xmlns="http://www.w3.org/2000/svg">
<path fill-rule="evenodd" clip-rule="evenodd" d="M20.0281 4.45797C20.7059 4.34186 21.465 4.30309 22.1793 4.42395C23.4551 4.63979 24.6336 5.23276 25.5652 6.12178C26.1741 6.13555 26.7725 6.01558 27.302 5.84457C27.7502 5.69983 28.1287 5.52507 28.394 5.38689C28.5259 5.31818 28.6278 5.25957 28.694 5.21989C28.7271 5.20008 28.7511 5.18509 28.7654 5.17603L28.7781 5.16795C29.1738 4.90431 29.7008 4.95563 30.038 5.29097C30.3752 5.62639 30.4295 6.15295 30.1679 6.55015C29.8909 6.97054 29.5064 7.71997 29.0757 8.55965C29.008 8.69167 28.9391 8.82593 28.8693 8.96149C28.6223 9.44144 28.3689 9.92653 28.1328 10.3427C27.9846 10.604 27.826 10.8693 27.6661 11.0986V11.4636C27.6763 12.8044 27.5225 14.1383 27.2104 15.4359C27.014 16.2524 26.755 17.0545 26.4347 17.835C25.6048 19.8572 24.3802 21.6938 22.8326 23.2375C21.285 24.7811 19.4452 26.001 17.4209 26.8257C15.3983 27.6496 13.232 28.0627 11.0482 28.0408C7.88247 28.0436 4.78332 27.1315 2.12369 25.4142C1.73195 25.1613 1.56702 24.6712 1.72614 24.2329C1.88525 23.7946 2.32618 23.5244 2.78894 23.5817C3.18942 23.6313 3.59264 23.6555 3.99617 23.6541C5.4461 23.6501 6.86842 23.3297 8.1669 22.7262C7.75417 22.5383 7.36013 22.3066 6.99192 22.0336C5.90963 21.2311 5.10442 20.1111 4.68833 18.8296C4.5802 18.4966 4.65412 18.1313 4.88321 17.8665C4.88731 17.8618 4.89145 17.8571 4.89563 17.8524C4.65093 17.6342 4.42196 17.3966 4.21116 17.1411C3.26274 15.9915 2.7405 14.5496 2.7328 13.0593L2.73277 13.0541L2.73278 12.9875C2.73278 12.633 2.92045 12.305 3.22606 12.1254C3.30353 12.0798 3.38564 12.0456 3.4701 12.0226C3.01899 11.1225 2.7844 10.1285 2.78612 9.12018C2.78558 7.97783 3.08398 6.85521 3.65166 5.86387C3.81554 5.57769 4.10998 5.3907 4.43869 5.36407C4.76739 5.33743 5.08809 5.47457 5.29591 5.73064C6.57932 7.31198 8.18103 8.60566 9.99701 9.52762C10.9305 10.0016 11.9099 10.3718 12.9177 10.6337C13.4826 10.7806 14.0565 10.8934 14.6362 10.9713C14.6107 10.0069 14.8011 9.04309 15.2008 8.15251C15.787 6.84608 16.7903 5.77117 18.0533 5.09638C18.5881 4.81061 19.2981 4.583 20.0281 4.45797ZM4.99048 14.5213C5.16334 15.0078 5.4205 15.4642 5.75391 15.8684C6.40901 16.6624 7.31827 17.2058 8.32789 17.4067C8.77761 17.4962 9.10886 17.88 9.13156 18.338C9.15426 18.7959 8.86259 19.2107 8.42392 19.3441C8.0606 19.4547 7.68836 19.5318 7.31189 19.5745C7.56066 19.8952 7.8533 20.1825 8.18318 20.4271C8.93143 20.9819 9.83402 21.2897 10.7654 21.3077C11.1879 21.3158 11.5597 21.5887 11.6942 21.9894C11.8286 22.3901 11.6966 22.832 11.3645 23.0934C9.9656 24.1941 8.348 24.9616 6.63393 25.3535C8.05458 25.8084 9.54451 26.0426 11.0516 26.0408L11.0632 26.0408C12.9832 26.0607 14.888 25.6979 16.6663 24.9735C18.4446 24.249 20.0607 23.1775 21.4202 21.8215C22.7797 20.4654 23.8554 18.8521 24.5844 17.0757C24.8658 16.39 25.0933 15.6854 25.2658 14.9682C25.5403 13.8272 25.6754 12.6543 25.6661 11.4753L25.6661 11.4675V10.7608C25.6661 10.5183 25.7542 10.2841 25.914 10.1018C26.0064 9.99637 26.1679 9.75296 26.3933 9.35576C26.6075 8.97826 26.8445 8.52505 27.0911 8.04614C27.106 8.01717 27.121 7.98806 27.136 7.95881C26.4965 8.09767 25.7718 8.17046 25.012 8.08835C24.7714 8.06234 24.5484 7.94996 24.3843 7.77204C23.7138 7.04492 22.8209 6.56091 21.8457 6.39593C21.413 6.32272 20.8899 6.33948 20.3657 6.42926C19.7962 6.52681 19.3006 6.69749 18.9957 6.86039C18.1234 7.32648 17.4304 8.06894 17.0255 8.97132C16.6205 9.87371 16.5266 10.885 16.7583 11.8465C16.8322 12.1531 16.7571 12.4765 16.5558 12.7192C16.3545 12.9619 16.0505 13.0955 15.7356 13.0795C14.611 13.0226 13.4984 12.8511 12.4146 12.5694C11.268 12.2714 10.1537 11.8502 9.09163 11.311C7.52792 10.5171 6.10385 9.48094 4.87073 8.24402C4.81448 8.53151 4.78592 8.82488 4.78612 9.12014L4.78611 9.1227C4.78472 9.85699 4.96492 10.5802 5.31067 11.228C5.65641 11.8758 6.15698 12.4281 6.76779 12.8356C7.13849 13.083 7.30079 13.5457 7.16579 13.9704C7.03078 14.3951 6.63105 14.6792 6.18558 14.6671C5.78212 14.6561 5.38204 14.607 4.99048 14.5213Z" fill="#202020"/>
</svg>
